[FRAME]
media_type=video
stream_index=0
key_frame=1
pkt_pts=262465
pkt_pts_time=2.916278
pkt_dts=262465
pkt_dts_time=2.916278
best_effort_timestamp=262465
best_effort_timestamp_time=2.916278
pkt_duration=N/A
pkt_duration_time=N/A
pkt_pos=62604
pkt_size=27744
width=380
height=256
pix_fmt=yuv420p
sample_aspect_ratio=1024:855
pict_type=I
coded_picture_number=25
display_picture_number=0
interlaced_frame=0
top_field_first=0
repeat_pict=0
[/FRAME]
[FRAME]
media_type=video
stream_index=0
key_frame=0
pkt_pts=266065
pkt_pts_time=2.956278
pkt_dts=266065
pkt_dts_time=2.956278
best_effort_timestamp=266065
best_effort_timestamp_time=2.956278
pkt_duration=N/A
pkt_duration_time=N/A
pkt_pos=104152
pkt_size=580
width=380
height=256
pix_fmt=yuv420p
sample_aspect_ratio=1024:855
pict_type=B
coded_picture_number=28
display_picture_number=0
interlaced_frame=0
top_field_first=0
repeat_pict=0
[/FRAME]
[FRAME]
media_type=video
stream_index=0
key_frame=0
pkt_pts=269665
pkt_pts_time=2.996278
pkt_dts=269665
pkt_dts_time=2.996278
best_effort_timestamp=269665
best_effort_timestamp_time=2.996278
pkt_duration=N/A
pkt_duration_time=N/A
pkt_pos=101520
pkt_size=2177
width=380
height=256
pix_fmt=yuv420p
sample_aspect_ratio=1024:855
pict_type=B
coded_picture_number=27
display_picture_number=0
interlaced_frame=0
top_field_first=0
repeat_pict=0
[/FRAME]
[FRAME]
media_type=video
stream_index=0
key_frame=0
pkt_pts=273265
pkt_pts_time=3.036278
pkt_dts=273265
pkt_dts_time=3.036278
best_effort_timestamp=273265
best_effort_timestamp_time=3.036278
pkt_duration=N/A
pkt_duration_time=N/A
pkt_pos=104904
pkt_size=1426
width=380
height=256
pix_fmt=yuv420p
sample_aspect_ratio=1024:855
pict_type=B
coded_picture_number=29
display_picture_number=0
interlaced_frame=0
top_field_first=0
repeat_pict=0
[/FRAME]
[FRAME]
media_type=video
stream_index=0
key_frame=0
pkt_pts=276865
pkt_pts_time=3.076278
pkt_dts=276865
pkt_dts_time=3.076278
best_effort_timestamp=276865
best_effort_timestamp_time=3.076278
pkt_duration=N/A
pkt_duration_time=N/A
pkt_pos=92684
pkt_size=8191
width=380
height=256
pix_fmt=yuv420p
sample_aspect_ratio=1024:855
pict_type=P
coded_picture_number=26
display_picture_number=0
interlaced_frame=0
top_field_first=0
repeat_pict=0
[/FRAME]
[FRAME]
media_type=video
stream_index=0
key_frame=0
pkt_pts=280465
pkt_pts_time=3.116278
pkt_dts=280465
pkt_dts_time=3.116278
best_effort_timestamp=280465
best_effort_timestamp_time=3.116278
pkt_duration=N/A
pkt_duration_time=N/A
pkt_pos=120508
pkt_size=840
width=380
height=256
pix_fmt=yuv420p
sample_aspect_ratio=1024:855
pict_type=B
coded_picture_number=32
display_picture_number=0
interlaced_frame=0
top_field_first=0
repeat_pict=0
[/FRAME]
[FRAME]
media_type=video
stream_index=0
key_frame=0
pkt_pts=284065
pkt_pts_time=3.156278
pkt_dts=284065
pkt_dts_time=3.156278
best_effort_timestamp=284065
best_effort_timestamp_time=3.156278
pkt_duration=N/A
pkt_duration_time=N/A
pkt_pos=117124
pkt_size=2570
width=380
height=256
pix_fmt=yuv420p
sample_aspect_ratio=1024:855
pict_type=B
coded_picture_number=31
display_picture_number=0
interlaced_frame=0
top_field_first=0
repeat_pict=0
[/FRAME]
[FRAME]
media_type=video
stream_index=0
key_frame=0
pkt_pts=287665
pkt_pts_time=3.196278
pkt_dts=287665
pkt_dts_time=3.196278
best_effort_timestamp=287665
best_effort_timestamp_time=3.196278
pkt_duration=N/A
pkt_duration_time=N/A
pkt_pos=121448
pkt_size=1095
width=380
height=256
pix_fmt=yuv420p
sample_aspect_ratio=1024:855
pict_type=B
coded_picture_number=33
display_picture_number=0
interlaced_frame=0
top_field_first=0
repeat_pict=0
[/FRAME]
[FRAME]
media_type=video
stream_index=0
key_frame=0
pkt_pts=291265
pkt_pts_time=3.236278
pkt_dts=291265
pkt_dts_time=3.236278
best_effort_timestamp=291265
best_effort_timestamp_time=3.236278
pkt_duration=N/A
pkt_duration_time=N/A
pkt_pos=106408
pkt_size=9969
width=380
height=256
pix_fmt=yuv420p
sample_aspect_ratio=1024:855
pict_type=P
coded_picture_number=30
display_picture_number=0
interlaced_frame=0
top_field_first=0
repeat_pict=0
[/FRAME]
[FRAME]
media_type=video
stream_index=0
key_frame=0
pkt_pts=294865
pkt_pts_time=3.276278
pkt_dts=294865
pkt_dts_time=3.276278
best_effort_timestamp=294865
best_effort_timestamp_time=3.276278
pkt_duration=N/A
pkt_duration_time=N/A
pkt_pos=140812
pkt_size=585
width=380
height=256
pix_fmt=yuv420p
sample_aspect_ratio=1024:855
pict_type=B
coded_picture_number=36
display_picture_number=0
interlaced_frame=0
top_field_first=0
repeat_pict=0
[/FRAME]
[FRAME]
media_type=video
stream_index=0
key_frame=0
pkt_pts=298465
pkt_pts_time=3.316278
pkt_dts=298465
pkt_dts_time=3.316278
best_effort_timestamp=298465
best_effort_timestamp_time=3.316278
pkt_duration=N/A
pkt_duration_time=N/A
pkt_pos=137616
pkt_size=2945
width=380
height=256
pix_fmt=yuv420p
sample_aspect_ratio=1024:855
pict_type=B
coded_picture_number=35
display_picture_number=0
interlaced_frame=0
top_field_first=0
repeat_pict=0
[/FRAME]
[FRAME]
media_type=video
stream_index=0
key_frame=0
pkt_pts=302065
pkt_pts_time=3.356278
pkt_dts=302065
pkt_dts_time=3.356278
best_effort_timestamp=302065
best_effort_timestamp_time=3.356278
pkt_duration=N/A
pkt_duration_time=N/A
pkt_pos=141564
pkt_size=1510
width=380
height=256
pix_fmt=yuv420p
sample_aspect_ratio=1024:855
pict_type=B
coded_picture_number=37
display_picture_number=0
interlaced_frame=0
top_field_first=0
repeat_pict=0
[/FRAME]
[FRAME]
media_type=video
stream_index=0
key_frame=0
pkt_pts=305665
pkt_pts_time=3.396278
pkt_dts=305665
pkt_dts_time=3.396278
best_effort_timestamp=305665
best_effort_timestamp_time=3.396278
pkt_duration=N/A
pkt_duration_time=N/A
pkt_pos=122764
pkt_size=13747
width=380
height=256
pix_fmt=yuv420p
sample_aspect_ratio=1024:855
pict_type=P
coded_picture_number=34
display_picture_number=0
interlaced_frame=0
top_field_first=0
repeat_pict=0
[/FRAME]
[FRAME]
media_type=video
stream_index=0
key_frame=0
pkt_pts=309265
pkt_pts_time=3.436278
pkt_dts=309265
pkt_dts_time=3.436278
best_effort_timestamp=309265
best_effort_timestamp_time=3.436278
pkt_duration=N/A
pkt_duration_time=N/A
pkt_pos=162432
pkt_size=1141
width=380
height=256
pix_fmt=yuv420p
sample_aspect_ratio=1024:855
pict_type=B
coded_picture_number=40
display_picture_number=0
interlaced_frame=0
top_field_first=0
repeat_pict=0
[/FRAME]
[FRAME]
media_type=video
stream_index=0
key_frame=0
pkt_pts=312865
pkt_pts_time=3.476278
pkt_dts=312865
pkt_dts_time=3.476278
best_effort_timestamp=312865
best_effort_timestamp_time=3.476278
pkt_duration=N/A
pkt_duration_time=N/A
pkt_pos=158296
pkt_size=3307
width=380
height=256
pix_fmt=yuv420p
sample_aspect_ratio=1024:855
pict_type=B
coded_picture_number=39
display_picture_number=0
interlaced_frame=0
top_field_first=0
repeat_pict=0
[/FRAME]
[FRAME]
media_type=video
stream_index=0
key_frame=0
pkt_pts=316465
pkt_pts_time=3.516278
pkt_dts=316465
pkt_dts_time=3.516278
best_effort_timestamp=316465
best_effort_timestamp_time=3.516278
pkt_duration=N/A
pkt_duration_time=N/A
pkt_pos=163748
pkt_size=2217
width=380
height=256
pix_fmt=yuv420p
sample_aspect_ratio=1024:855
pict_type=B
coded_picture_number=41
display_picture_number=0
interlaced_frame=0
top_field_first=0
repeat_pict=0
[/FRAME]
[FRAME]
media_type=video
stream_index=0
key_frame=0
pkt_pts=320065
pkt_pts_time=3.556278
pkt_dts=320065
pkt_dts_time=3.556278
best_effort_timestamp=320065
best_effort_timestamp_time=3.556278
pkt_duration=N/A
pkt_duration_time=N/A
pkt_pos=143632
pkt_size=13809
width=380
height=256
pix_fmt=yuv420p
sample_aspect_ratio=1024:855
pict_type=P
coded_picture_number=38
display_picture_number=0
interlaced_frame=0
top_field_first=0
repeat_pict=0
[/FRAME]
[FRAME]
media_type=video
stream_index=0
key_frame=0
pkt_pts=323665
pkt_pts_time=3.596278
pkt_dts=323665
pkt_dts_time=3.596278
best_effort_timestamp=323665
best_effort_timestamp_time=3.596278
pkt_duration=N/A
pkt_duration_time=N/A
pkt_pos=183300
pkt_size=1190
width=380
height=256
pix_fmt=yuv420p
sample_aspect_ratio=1024:855
pict_type=B
coded_picture_number=44
display_picture_number=0
interlaced_frame=0
top_field_first=0
repeat_pict=0
[/FRAME]
[FRAME]
media_type=video
stream_index=0
key_frame=0
pkt_pts=327265
pkt_pts_time=3.636278
pkt_dts=327265
pkt_dts_time=3.636278
best_effort_timestamp=327265
best_effort_timestamp_time=3.636278
pkt_duration=N/A
pkt_duration_time=N/A
pkt_pos=180104
pkt_size=2560
width=380
height=256
pix_fmt=yuv420p
sample_aspect_ratio=1024:855
pict_type=B
coded_picture_number=43
display_picture_number=0
interlaced_frame=0
top_field_first=0
repeat_pict=0
[/FRAME]
[FRAME]
media_type=video
stream_index=0
key_frame=0
pkt_pts=330865
pkt_pts_time=3.676278
pkt_dts=330865
pkt_dts_time=3.676278
best_effort_timestamp=330865
best_effort_timestamp_time=3.676278
pkt_duration=N/A
pkt_duration_time=N/A
pkt_pos=184616
pkt_size=2258
width=380
height=256
pix_fmt=yuv420p
sample_aspect_ratio=1024:855
pict_type=B
coded_picture_number=45
display_picture_number=0
interlaced_frame=0
top_field_first=0
repeat_pict=0
[/FRAME]
[FRAME]
media_type=video
stream_index=0
key_frame=0
pkt_pts=334465
pkt_pts_time=3.716278
pkt_dts=334465
pkt_dts_time=3.716278
best_effort_timestamp=334465
best_effort_timestamp_time=3.716278
pkt_duration=N/A
pkt_duration_time=N/A
pkt_pos=166192
pkt_size=12777
width=380
height=256
pix_fmt=yuv420p
sample_aspect_ratio=1024:855
pict_type=P
coded_picture_number=42
display_picture_number=0
interlaced_frame=0
top_field_first=0
repeat_pict=0
[/FRAME]
[FRAME]
media_type=video
stream_index=0
key_frame=0
pkt_pts=338065
pkt_pts_time=3.756278
pkt_dts=338065
pkt_dts_time=3.756278
best_effort_timestamp=338065
best_effort_timestamp_time=3.756278
pkt_duration=N/A
pkt_duration_time=N/A
pkt_pos=203040
pkt_size=517
width=380
height=256
pix_fmt=yuv420p
sample_aspect_ratio=1024:855
pict_type=B
coded_picture_number=48
display_picture_number=0
interlaced_frame=0
top_field_first=0
repeat_pict=0
[/FRAME]
[FRAME]
media_type=video
stream_index=0
key_frame=0
pkt_pts=341665
pkt_pts_time=3.796278
pkt_dts=341665
pkt_dts_time=3.796278
best_effort_timestamp=341665
best_effort_timestamp_time=3.796278
pkt_duration=N/A
pkt_duration_time=N/A
pkt_pos=197964
pkt_size=4218
width=380
height=256
pix_fmt=yuv420p
sample_aspect_ratio=1024:855
pict_type=B
coded_picture_number=47
display_picture_number=0
interlaced_frame=0
top_field_first=0
repeat_pict=0
[/FRAME]
[FRAME]
media_type=video
stream_index=0
key_frame=0
pkt_pts=345265
pkt_pts_time=3.836278
pkt_dts=345265
pkt_dts_time=3.836278
best_effort_timestamp=345265
best_effort_timestamp_time=3.836278
pkt_duration=N/A
pkt_duration_time=N/A
pkt_pos=203604
pkt_size=2248
width=380
height=256
pix_fmt=yuv420p
sample_aspect_ratio=1024:855
pict_type=B
coded_picture_number=49
display_picture_number=0
interlaced_frame=0
top_field_first=0
repeat_pict=0
[/FRAME]
[FRAME]
media_type=video
stream_index=0
key_frame=0
pkt_pts=348865
pkt_pts_time=3.876278
pkt_dts=348865
pkt_dts_time=3.876278
best_effort_timestamp=348865
best_effort_timestamp_time=3.876278
pkt_duration=N/A
pkt_duration_time=N/A
pkt_pos=187060
pkt_size=10236
width=380
height=256
pix_fmt=yuv420p
sample_aspect_ratio=1024:855
pict_type=P
coded_picture_number=46
display_picture_number=0
interlaced_frame=0
top_field_first=0
repeat_pict=0
[/FRAME]
[FRAME]
media_type=video
stream_index=0
key_frame=1
pkt_pts=352465
pkt_pts_time=3.916278
pkt_dts=352465
pkt_dts_time=3.916278
best_effort_timestamp=352465
best_effort_timestamp_time=3.916278
pkt_duration=N/A
pkt_duration_time=N/A
pkt_pos=206048
pkt_size=31465
width=380
height=256
pix_fmt=yuv420p
sample_aspect_ratio=1024:855
pict_type=I
coded_picture_number=50
display_picture_number=0
interlaced_frame=0
top_field_first=0
repeat_pict=0
[/FRAME]
[FRAME]
media_type=video
stream_index=0
key_frame=0
pkt_pts=356065
pkt_pts_time=3.956278
pkt_dts=356065
pkt_dts_time=3.956278
best_effort_timestamp=356065
best_effort_timestamp_time=3.956278
pkt_duration=N/A
pkt_duration_time=N/A
pkt_pos=253236
pkt_size=588
width=380
height=256
pix_fmt=yuv420p
sample_aspect_ratio=1024:855
pict_type=B
coded_picture_number=53
display_picture_number=0
interlaced_frame=0
top_field_first=0
repeat_pict=0
[/FRAME]
[FRAME]
media_type=video
stream_index=0
key_frame=0
pkt_pts=359665
pkt_pts_time=3.996278
pkt_dts=359665
pkt_dts_time=3.996278
best_effort_timestamp=359665
best_effort_timestamp_time=3.996278
pkt_duration=N/A
pkt_duration_time=N/A
pkt_pos=249852
pkt_size=3191
width=380
height=256
pix_fmt=yuv420p
sample_aspect_ratio=1024:855
pict_type=B
coded_picture_number=52
display_picture_number=0
interlaced_frame=0
top_field_first=0
repeat_pict=0
[/FRAME]
[FRAME]
media_type=video
stream_index=0
key_frame=0
pkt_pts=363265
pkt_pts_time=4.036278
pkt_dts=363265
pkt_dts_time=4.036278
best_effort_timestamp=363265
best_effort_timestamp_time=4.036278
pkt_duration=N/A
pkt_duration_time=N/A
pkt_pos=254364
pkt_size=987
width=380
height=256
pix_fmt=yuv420p
sample_aspect_ratio=1024:855
pict_type=B
coded_picture_number=54
display_picture_number=0
interlaced_frame=0
top_field_first=0
repeat_pict=0
[/FRAME]
[FRAME]
media_type=video
stream_index=0
key_frame=0
pkt_pts=366865
pkt_pts_time=4.076278
pkt_dts=366865
pkt_dts_time=4.076278
best_effort_timestamp=366865
best_effort_timestamp_time=4.076278
pkt_duration=N/A
pkt_duration_time=N/A
pkt_pos=240452
pkt_size=8753
width=380
height=256
pix_fmt=yuv420p
sample_aspect_ratio=1024:855
pict_type=P
coded_picture_number=51
display_picture_number=0
interlaced_frame=0
top_field_first=0
repeat_pict=0
[/FRAME]
[FRAME]
media_type=video
stream_index=0
key_frame=0
pkt_pts=370465
pkt_pts_time=4.116278
pkt_dts=370465
pkt_dts_time=4.116278
best_effort_timestamp=370465
best_effort_timestamp_time=4.116278
pkt_duration=N/A
pkt_duration_time=N/A
pkt_pos=272600
pkt_size=1167
width=380
height=256
pix_fmt=yuv420p
sample_aspect_ratio=1024:855
pict_type=B
coded_picture_number=57
display_picture_number=0
interlaced_frame=0
top_field_first=0
repeat_pict=0
[/FRAME]
[FRAME]
media_type=video
stream_index=0
key_frame=0
pkt_pts=374065
pkt_pts_time=4.156278
pkt_dts=374065
pkt_dts_time=4.156278
best_effort_timestamp=374065
best_effort_timestamp_time=4.156278
pkt_duration=N/A
pkt_duration_time=N/A
pkt_pos=267524
pkt_size=4527
width=380
height=256
pix_fmt=yuv420p
sample_aspect_ratio=1024:855
pict_type=B
coded_picture_number=56
display_picture_number=0
interlaced_frame=0
top_field_first=0
repeat_pict=0
[/FRAME]
[FRAME]
media_type=video
stream_index=0
key_frame=0
pkt_pts=377665
pkt_pts_time=4.196278
pkt_dts=377665
pkt_dts_time=4.196278
best_effort_timestamp=377665
best_effort_timestamp_time=4.196278
pkt_duration=N/A
pkt_duration_time=N/A
pkt_pos=273916
pkt_size=832
width=380
height=256
pix_fmt=yuv420p
sample_aspect_ratio=1024:855
pict_type=B
coded_picture_number=58
display_picture_number=0
interlaced_frame=0
top_field_first=0
repeat_pict=0
[/FRAME]
[FRAME]
media_type=video
stream_index=0
key_frame=0
pkt_pts=381265
pkt_pts_time=4.236278
pkt_dts=381265
pkt_dts_time=4.236278
best_effort_timestamp=381265
best_effort_timestamp_time=4.236278
pkt_duration=N/A
pkt_duration_time=N/A
pkt_pos=255492
pkt_size=11252
width=380
height=256
pix_fmt=yuv420p
sample_aspect_ratio=1024:855
pict_type=P
coded_picture_number=55
display_picture_number=0
interlaced_frame=0
top_field_first=0
repeat_pict=0
[/FRAME]
[FRAME]
media_type=video
stream_index=0
key_frame=0
pkt_pts=384865
pkt_pts_time=4.276278
pkt_dts=384865
pkt_dts_time=4.276278
best_effort_timestamp=384865
best_effort_timestamp_time=4.276278
pkt_duration=N/A
pkt_duration_time=N/A
pkt_pos=292152
pkt_size=1796
width=380
height=256
pix_fmt=yuv420p
sample_aspect_ratio=1024:855
pict_type=B
coded_picture_number=61
display_picture_number=0
interlaced_frame=0
top_field_first=0
repeat_pict=0
[/FRAME]
[FRAME]
media_type=video
stream_index=0
key_frame=0
pkt_pts=388465
pkt_pts_time=4.316278
pkt_dts=388465
pkt_dts_time=4.316278
best_effort_timestamp=388465
best_effort_timestamp_time=4.316278
pkt_duration=N/A
pkt_duration_time=N/A
pkt_pos=288768
pkt_size=3226
width=380
height=256
pix_fmt=yuv420p
sample_aspect_ratio=1024:855
pict_type=B
coded_picture_number=60
display_picture_number=0
interlaced_frame=0
top_field_first=0
repeat_pict=0
[/FRAME]
[FRAME]
media_type=video
stream_index=0
key_frame=0
pkt_pts=392065
pkt_pts_time=4.356278
pkt_dts=392065
pkt_dts_time=4.356278
best_effort_timestamp=392065
best_effort_timestamp_time=4.356278
pkt_duration=N/A
pkt_duration_time=N/A
pkt_pos=294408
pkt_size=1137
width=380
height=256
pix_fmt=yuv420p
sample_aspect_ratio=1024:855
pict_type=B
coded_picture_number=62
display_picture_number=0
interlaced_frame=0
top_field_first=0
repeat_pict=0
[/FRAME]
[FRAME]
media_type=video
stream_index=0
key_frame=0
pkt_pts=395665
pkt_pts_time=4.396278
pkt_dts=395665
pkt_dts_time=4.396278
best_effort_timestamp=395665
best_effort_timestamp_time=4.396278
pkt_duration=N/A
pkt_duration_time=N/A
pkt_pos=274856
pkt_size=12597
width=380
height=256
pix_fmt=yuv420p
sample_aspect_ratio=1024:855
pict_type=P
coded_picture_number=59
display_picture_number=0
interlaced_frame=0
top_field_first=0
repeat_pict=0
[/FRAME]
[FRAME]
media_type=video
stream_index=0
key_frame=0
pkt_pts=399265
pkt_pts_time=4.436278
pkt_dts=399265
pkt_dts_time=4.436278
best_effort_timestamp=399265
best_effort_timestamp_time=4.436278
pkt_duration=N/A
pkt_duration_time=N/A
pkt_pos=295724
pkt_size=7856
width=380
height=256
pix_fmt=yuv420p
sample_aspect_ratio=1024:855
pict_type=P
coded_picture_number=63
display_picture_number=0
interlaced_frame=0
top_field_first=0
repeat_pict=0
[/FRAME]
[FRAME]
media_type=video
stream_index=0
key_frame=0
pkt_pts=402865
pkt_pts_time=4.476278
pkt_dts=402865
pkt_dts_time=4.476278
best_effort_timestamp=402865
best_effort_timestamp_time=4.476278
pkt_duration=N/A
pkt_duration_time=N/A
pkt_pos=304184
pkt_size=11478
width=380
height=256
pix_fmt=yuv420p
sample_aspect_ratio=1024:855
pict_type=P
coded_picture_number=64
display_picture_number=0
interlaced_frame=0
top_field_first=0
repeat_pict=0
[/FRAME]
[FRAME]
media_type=video
stream_index=0
key_frame=0
pkt_pts=406465
pkt_pts_time=4.516278
pkt_dts=406465
pkt_dts_time=4.516278
best_effort_timestamp=406465
best_effort_timestamp_time=4.516278
pkt_duration=N/A
pkt_duration_time=N/A
pkt_pos=329752
pkt_size=240
width=380
height=256
pix_fmt=yuv420p
sample_aspect_ratio=1024:855
pict_type=B
coded_picture_number=67
display_picture_number=0
interlaced_frame=0
top_field_first=0
repeat_pict=0
[/FRAME]
[FRAME]
media_type=video
stream_index=0
key_frame=0
pkt_pts=410065
pkt_pts_time=4.556278
pkt_dts=410065
pkt_dts_time=4.556278
best_effort_timestamp=410065
best_effort_timestamp_time=4.556278
pkt_duration=N/A
pkt_duration_time=N/A
pkt_pos=328812
pkt_size=835
width=380
height=256
pix_fmt=yuv420p
sample_aspect_ratio=1024:855
pict_type=B
coded_picture_number=66
display_picture_number=0
interlaced_frame=0
top_field_first=0
repeat_pict=0
[/FRAME]
[FRAME]
media_type=video
stream_index=0
key_frame=0
pkt_pts=413665
pkt_pts_time=4.596278
pkt_dts=413665
pkt_dts_time=4.596278
best_effort_timestamp=413665
best_effort_timestamp_time=4.596278
pkt_duration=N/A
pkt_duration_time=N/A
pkt_pos=330128
pkt_size=288
width=380
height=256
pix_fmt=yuv420p
sample_aspect_ratio=1024:855
pict_type=B
coded_picture_number=68
display_picture_number=0
interlaced_frame=0
top_field_first=0
repeat_pict=0
[/FRAME]
[FRAME]
media_type=video
stream_index=0
key_frame=0
pkt_pts=417265
pkt_pts_time=4.636278
pkt_dts=417265
pkt_dts_time=4.636278
best_effort_timestamp=417265
best_effort_timestamp_time=4.636278
pkt_duration=N/A
pkt_duration_time=N/A
pkt_pos=316404
pkt_size=11159
width=380
height=256
pix_fmt=yuv420p
sample_aspect_ratio=1024:855
pict_type=P
coded_picture_number=65
display_picture_number=0
interlaced_frame=0
top_field_first=0
repeat_pict=0
[/FRAME]
[FRAME]
media_type=video
stream_index=0
key_frame=0
pkt_pts=420865
pkt_pts_time=4.676278
pkt_dts=420865
pkt_dts_time=4.676278
best_effort_timestamp=420865
best_effort_timestamp_time=4.676278
pkt_duration=N/A
pkt_duration_time=N/A
pkt_pos=340844
pkt_size=292
width=380
height=256
pix_fmt=yuv420p
sample_aspect_ratio=1024:855
pict_type=B
coded_picture_number=71
display_picture_number=0
interlaced_frame=0
top_field_first=0
repeat_pict=0
[/FRAME]
[FRAME]
media_type=video
stream_index=0
key_frame=0
pkt_pts=424465
pkt_pts_time=4.716278
pkt_dts=424465
pkt_dts_time=4.716278
best_effort_timestamp=424465
best_effort_timestamp_time=4.716278
pkt_duration=N/A
pkt_duration_time=N/A
pkt_pos=339904
pkt_size=759
width=380
height=256
pix_fmt=yuv420p
sample_aspect_ratio=1024:855
pict_type=B
coded_picture_number=70
display_picture_number=0
interlaced_frame=0
top_field_first=0
repeat_pict=0
[/FRAME]
[FRAME]
media_type=video
stream_index=0
key_frame=0
pkt_pts=428065
pkt_pts_time=4.756278
pkt_dts=428065
pkt_dts_time=4.756278
best_effort_timestamp=428065
best_effort_timestamp_time=4.756278
pkt_duration=N/A
pkt_duration_time=N/A
pkt_pos=341596
pkt_size=537
width=380
height=256
pix_fmt=yuv420p
sample_aspect_ratio=1024:855
pict_type=B
coded_picture_number=72
display_picture_number=0
interlaced_frame=0
top_field_first=0
repeat_pict=0
[/FRAME]
[FRAME]
media_type=video
stream_index=0
key_frame=0
pkt_pts=431665
pkt_pts_time=4.796278
pkt_dts=431665
pkt_dts_time=4.796278
best_effort_timestamp=431665
best_effort_timestamp_time=4.796278
pkt_duration=N/A
pkt_duration_time=N/A
pkt_pos=330504
pkt_size=8759
width=380
height=256
pix_fmt=yuv420p
sample_aspect_ratio=1024:855
pict_type=P
coded_picture_number=69
display_picture_number=0
interlaced_frame=0
top_field_first=0
repeat_pict=0
[/FRAME]
[FRAME]
media_type=video
stream_index=0
key_frame=0
pkt_pts=435265
pkt_pts_time=4.836278
pkt_dts=435265
pkt_dts_time=4.836278
best_effort_timestamp=435265
best_effort_timestamp_time=4.836278
pkt_duration=N/A
pkt_duration_time=N/A
pkt_pos=353064
pkt_size=212
width=380
height=256
pix_fmt=yuv420p
sample_aspect_ratio=1024:855
pict_type=B
coded_picture_number=74
display_picture_number=0
interlaced_frame=0
top_field_first=0
repeat_pict=0
[/FRAME]
[FRAME]
media_type=video
stream_index=0
key_frame=0
pkt_pts=438865
pkt_pts_time=4.876278
pkt_dts=438865
pkt_dts_time=4.876278
best_effort_timestamp=438865
best_effort_timestamp_time=4.876278
pkt_duration=N/A
pkt_duration_time=N/A
pkt_pos=342348
pkt_size=9922
width=380
height=256
pix_fmt=yuv420p
sample_aspect_ratio=1024:855
pict_type=P
coded_picture_number=73
display_picture_number=0
interlaced_frame=0
top_field_first=0
repeat_pict=0
[/FRAME]
[FRAME]
media_type=video
stream_index=0
key_frame=1
pkt_pts=442465
pkt_pts_time=4.916278
pkt_dts=442465
pkt_dts_time=4.916278
best_effort_timestamp=442465
best_effort_timestamp_time=4.916278
pkt_duration=N/A
pkt_duration_time=N/A
pkt_pos=353440
pkt_size=32206
width=380
height=256
pix_fmt=yuv420p
sample_aspect_ratio=1024:855
pict_type=I
coded_picture_number=75
display_picture_number=0
interlaced_frame=0
top_field_first=0
repeat_pict=0
[/FRAME]
[FRAME]
media_type=video
stream_index=0
key_frame=0
pkt_pts=446065
pkt_pts_time=4.956278
pkt_dts=446065
pkt_dts_time=4.956278
best_effort_timestamp=446065
best_effort_timestamp_time=4.956278
pkt_duration=N/A
pkt_duration_time=N/A
pkt_pos=402696
pkt_size=1025
width=380
height=256
pix_fmt=yuv420p
sample_aspect_ratio=1024:855
pict_type=B
coded_picture_number=78
display_picture_number=0
interlaced_frame=0
top_field_first=0
repeat_pict=0
[/FRAME]
[FRAME]
media_type=video
stream_index=0
key_frame=0
pkt_pts=449665
pkt_pts_time=4.996278
pkt_dts=449665
pkt_dts_time=4.996278
best_effort_timestamp=449665
best_effort_timestamp_time=4.996278
pkt_duration=N/A
pkt_duration_time=N/A
pkt_pos=399876
pkt_size=2608
width=380
height=256
pix_fmt=yuv420p
sample_aspect_ratio=1024:855
pict_type=B
coded_picture_number=77
display_picture_number=0
interlaced_frame=0
top_field_first=0
repeat_pict=0
[/FRAME]
[FRAME]
media_type=video
stream_index=0
key_frame=0
pkt_pts=453265
pkt_pts_time=5.036278
pkt_dts=453265
pkt_dts_time=5.036278
best_effort_timestamp=453265
best_effort_timestamp_time=5.036278
pkt_duration=N/A
pkt_duration_time=N/A
pkt_pos=403824
pkt_size=1198
width=380
height=256
pix_fmt=yuv420p
sample_aspect_ratio=1024:855
pict_type=B
coded_picture_number=79
display_picture_number=0
interlaced_frame=0
top_field_first=0
repeat_pict=0
[/FRAME]
[FRAME]
media_type=video
stream_index=0
key_frame=0
pkt_pts=456865
pkt_pts_time=5.076278
pkt_dts=456865
pkt_dts_time=5.076278
best_effort_timestamp=456865
best_effort_timestamp_time=5.076278
pkt_duration=N/A
pkt_duration_time=N/A
pkt_pos=388220
pkt_size=10286
width=380
height=256
pix_fmt=yuv420p
sample_aspect_ratio=1024:855
pict_type=P
coded_picture_number=76
display_picture_number=0
interlaced_frame=0
top_field_first=0
repeat_pict=0
[/FRAME]
[FRAME]
media_type=video
stream_index=0
key_frame=0
pkt_pts=460465
pkt_pts_time=5.116278
pkt_dts=460465
pkt_dts_time=5.116278
best_effort_timestamp=460465
best_effort_timestamp_time=5.116278
pkt_duration=N/A
pkt_duration_time=N/A
pkt_pos=418300
pkt_size=631
width=380
height=256
pix_fmt=yuv420p
sample_aspect_ratio=1024:855
pict_type=B
coded_picture_number=82
display_picture_number=0
interlaced_frame=0
top_field_first=0
repeat_pict=0
[/FRAME]
[FRAME]
media_type=video
stream_index=0
key_frame=0
pkt_pts=464065
pkt_pts_time=5.156278
pkt_dts=464065
pkt_dts_time=5.156278
best_effort_timestamp=464065
best_effort_timestamp_time=5.156278
pkt_duration=N/A
pkt_duration_time=N/A
pkt_pos=416984
pkt_size=1135
width=380
height=256
pix_fmt=yuv420p
sample_aspect_ratio=1024:855
pict_type=B
coded_picture_number=81
display_picture_number=0
interlaced_frame=0
top_field_first=0
repeat_pict=0
[/FRAME]
[FRAME]
media_type=video
stream_index=0
key_frame=0
pkt_pts=467665
pkt_pts_time=5.196278
pkt_dts=467665
pkt_dts_time=5.196278
best_effort_timestamp=467665
best_effort_timestamp_time=5.196278
pkt_duration=N/A
pkt_duration_time=N/A
pkt_pos=419052
pkt_size=325
width=380
height=256
pix_fmt=yuv420p
sample_aspect_ratio=1024:855
pict_type=B
coded_picture_number=83
display_picture_number=0
interlaced_frame=0
top_field_first=0
repeat_pict=0
[/FRAME]
[FRAME]
media_type=video
stream_index=0
key_frame=0
pkt_pts=471265
pkt_pts_time=5.236278
pkt_dts=471265
pkt_dts_time=5.236278
best_effort_timestamp=471265
best_effort_timestamp_time=5.236278
pkt_duration=N/A
pkt_duration_time=N/A
pkt_pos=405516
pkt_size=10705
width=380
height=256
pix_fmt=yuv420p
sample_aspect_ratio=1024:855
pict_type=P
coded_picture_number=80
display_picture_number=0
interlaced_frame=0
top_field_first=0
repeat_pict=0
[/FRAME]
[FRAME]
media_type=video
stream_index=0
key_frame=0
pkt_pts=474865
pkt_pts_time=5.276278
pkt_dts=474865
pkt_dts_time=5.276278
best_effort_timestamp=474865
best_effort_timestamp_time=5.276278
pkt_duration=N/A
pkt_duration_time=N/A
pkt_pos=431460
pkt_size=1179
width=380
height=256
pix_fmt=yuv420p
sample_aspect_ratio=1024:855
pict_type=B
coded_picture_number=86
display_picture_number=0
interlaced_frame=0
top_field_first=0
repeat_pict=0
[/FRAME]
[FRAME]
media_type=video
stream_index=0
key_frame=0
pkt_pts=478465
pkt_pts_time=5.316278
pkt_dts=478465
pkt_dts_time=5.316278
best_effort_timestamp=478465
best_effort_timestamp_time=5.316278
pkt_duration=N/A
pkt_duration_time=N/A
pkt_pos=430144
pkt_size=1251
width=380
height=256
pix_fmt=yuv420p
sample_aspect_ratio=1024:855
pict_type=B
coded_picture_number=85
display_picture_number=0
interlaced_frame=0
top_field_first=0
repeat_pict=0
[/FRAME]
[FRAME]
media_type=video
stream_index=0
key_frame=0
pkt_pts=482065
pkt_pts_time=5.356278
pkt_dts=482065
pkt_dts_time=5.356278
best_effort_timestamp=482065
best_effort_timestamp_time=5.356278
pkt_duration=N/A
pkt_duration_time=N/A
pkt_pos=432776
pkt_size=302
width=380
height=256
pix_fmt=yuv420p
sample_aspect_ratio=1024:855
pict_type=B
coded_picture_number=87
display_picture_number=0
interlaced_frame=0
top_field_first=0
repeat_pict=0
[/FRAME]
[FRAME]
media_type=video
stream_index=0
key_frame=0
pkt_pts=485665
pkt_pts_time=5.396278
pkt_dts=485665
pkt_dts_time=5.396278
best_effort_timestamp=485665
best_effort_timestamp_time=5.396278
pkt_duration=N/A
pkt_duration_time=N/A
pkt_pos=419428
pkt_size=9698
width=380
height=256
pix_fmt=yuv420p
sample_aspect_ratio=1024:855
pict_type=P
coded_picture_number=84
display_picture_number=0
interlaced_frame=0
top_field_first=0
repeat_pict=0
[/FRAME]
[FRAME]
media_type=video
stream_index=0
key_frame=0
pkt_pts=489265
pkt_pts_time=5.436278
pkt_dts=489265
pkt_dts_time=5.436278
best_effort_timestamp=489265
best_effort_timestamp_time=5.436278
pkt_duration=N/A
pkt_duration_time=N/A
pkt_pos=447440
pkt_size=867
width=380
height=256
pix_fmt=yuv420p
sample_aspect_ratio=1024:855
pict_type=B
coded_picture_number=90
display_picture_number=0
interlaced_frame=0
top_field_first=0
repeat_pict=0
[/FRAME]
[FRAME]
media_type=video
stream_index=0
key_frame=0
pkt_pts=492865
pkt_pts_time=5.476278
pkt_dts=492865
pkt_dts_time=5.476278
best_effort_timestamp=492865
best_effort_timestamp_time=5.476278
pkt_duration=N/A
pkt_duration_time=N/A
pkt_pos=446124
pkt_size=1255
width=380
height=256
pix_fmt=yuv420p
sample_aspect_ratio=1024:855
pict_type=B
coded_picture_number=89
display_picture_number=0
interlaced_frame=0
top_field_first=0
repeat_pict=0
[/FRAME]
[FRAME]
media_type=video
stream_index=0
key_frame=0
pkt_pts=496465
pkt_pts_time=5.516278
pkt_dts=496465
pkt_dts_time=5.516278
best_effort_timestamp=496465
best_effort_timestamp_time=5.516278
pkt_duration=N/A
pkt_duration_time=N/A
pkt_pos=448380
pkt_size=614
width=380
height=256
pix_fmt=yuv420p
sample_aspect_ratio=1024:855
pict_type=B
coded_picture_number=91
display_picture_number=0
interlaced_frame=0
top_field_first=0
repeat_pict=0
[/FRAME]
[FRAME]
media_type=video
stream_index=0
key_frame=0
pkt_pts=500065
pkt_pts_time=5.556278
pkt_dts=500065
pkt_dts_time=5.556278
best_effort_timestamp=500065
best_effort_timestamp_time=5.556278
pkt_duration=N/A
pkt_duration_time=N/A
pkt_pos=433152
pkt_size=11743
width=380
height=256
pix_fmt=yuv420p
sample_aspect_ratio=1024:855
pict_type=P
coded_picture_number=88
display_picture_number=0
interlaced_frame=0
top_field_first=0
repeat_pict=0
[/FRAME]
[FRAME]
media_type=video
stream_index=0
key_frame=0
pkt_pts=503665
pkt_pts_time=5.596278
pkt_dts=503665
pkt_dts_time=5.596278
best_effort_timestamp=503665
best_effort_timestamp_time=5.596278
pkt_duration=N/A
pkt_duration_time=N/A
pkt_pos=462480
pkt_size=800
width=380
height=256
pix_fmt=yuv420p
sample_aspect_ratio=1024:855
pict_type=B
coded_picture_number=94
display_picture_number=0
interlaced_frame=0
top_field_first=0
repeat_pict=0
[/FRAME]
[FRAME]
media_type=video
stream_index=0
key_frame=0
pkt_pts=507265
pkt_pts_time=5.636278
pkt_dts=507265
pkt_dts_time=5.636278
best_effort_timestamp=507265
best_effort_timestamp_time=5.636278
pkt_duration=N/A
pkt_duration_time=N/A
pkt_pos=460788
pkt_size=1492
width=380
height=256
pix_fmt=yuv420p
sample_aspect_ratio=1024:855
pict_type=B
coded_picture_number=93
display_picture_number=0
interlaced_frame=0
top_field_first=0
repeat_pict=0
[/FRAME]
[FRAME]
media_type=video
stream_index=0
key_frame=0
pkt_pts=510865
pkt_pts_time=5.676278
pkt_dts=510865
pkt_dts_time=5.676278
best_effort_timestamp=510865
best_effort_timestamp_time=5.676278
pkt_duration=N/A
pkt_duration_time=N/A
pkt_pos=463420
pkt_size=356
width=380
height=256
pix_fmt=yuv420p
sample_aspect_ratio=1024:855
pict_type=B
coded_picture_number=95
display_picture_number=0
interlaced_frame=0
top_field_first=0
repeat_pict=0
[/FRAME]
[FRAME]
media_type=video
stream_index=0
key_frame=0
pkt_pts=514465
pkt_pts_time=5.716278
pkt_dts=514465
pkt_dts_time=5.716278
best_effort_timestamp=514465
best_effort_timestamp_time=5.716278
pkt_duration=N/A
pkt_duration_time=N/A
pkt_pos=449132
pkt_size=10612
width=380
height=256
pix_fmt=yuv420p
sample_aspect_ratio=1024:855
pict_type=P
coded_picture_number=92
display_picture_number=0
interlaced_frame=0
top_field_first=0
repeat_pict=0
[/FRAME]
[FRAME]
media_type=video
stream_index=0
key_frame=0
pkt_pts=518065
pkt_pts_time=5.756278
pkt_dts=518065
pkt_dts_time=5.756278
best_effort_timestamp=518065
best_effort_timestamp_time=5.756278
pkt_duration=N/A
pkt_duration_time=N/A
pkt_pos=475640
pkt_size=1112
width=380
height=256
pix_fmt=yuv420p
sample_aspect_ratio=1024:855
pict_type=B
coded_picture_number=98
display_picture_number=0
interlaced_frame=0
top_field_first=0
repeat_pict=0
[/FRAME]
[FRAME]
media_type=video
stream_index=0
key_frame=0
pkt_pts=521665
pkt_pts_time=5.796278
pkt_dts=521665
pkt_dts_time=5.796278
best_effort_timestamp=521665
best_effort_timestamp_time=5.796278
pkt_duration=N/A
pkt_duration_time=N/A
pkt_pos=474324
pkt_size=1175
width=380
height=256
pix_fmt=yuv420p
sample_aspect_ratio=1024:855
pict_type=B
coded_picture_number=97
display_picture_number=0
interlaced_frame=0
top_field_first=0
repeat_pict=0
[/FRAME]
[FRAME]
media_type=video
stream_index=0
key_frame=0
pkt_pts=525265
pkt_pts_time=5.836278
pkt_dts=N/A
pkt_dts_time=N/A
best_effort_timestamp=525265
best_effort_timestamp_time=5.836278
pkt_duration=N/A
pkt_duration_time=N/A
pkt_pos=477520
pkt_size=415
width=380
height=256
pix_fmt=yuv420p
sample_aspect_ratio=1024:855
pict_type=B
coded_picture_number=99
display_picture_number=0
interlaced_frame=0
top_field_first=0
repeat_pict=0
[/FRAME]
[FRAME]
media_type=video
stream_index=0
key_frame=0
pkt_pts=528865
pkt_pts_time=5.876278
pkt_dts=N/A
pkt_dts_time=N/A
best_effort_timestamp=528865
best_effort_timestamp_time=5.876278
pkt_duration=N/A
pkt_duration_time=N/A
pkt_pos=463984
pkt_size=9721
width=380
height=256
pix_fmt=yuv420p
sample_aspect_ratio=1024:855
pict_type=P
coded_picture_number=96
display_picture_number=0
interlaced_frame=0
top_field_first=0
repeat_pict=0
[/FRAME]
